<svg width="160" height="56" viewBox="0 0 160 56" fill="none" xmlns="http://www.w3.org/2000/svg">
<path d="M40.2976 26.0447C40.174 25.657 40.0078 25.3097 39.799 25.0028C39.5945 24.6918 39.3494 24.4276 39.0639 24.2102C38.7784 23.9886 38.4524 23.8203 38.0859 23.7053C37.7237 23.5902 37.3253 23.5327 36.8906 23.5327C36.1534 23.5327 35.4886 23.7223 34.8963 24.1016C34.304 24.4808 33.8352 25.0369 33.4901 25.7699C33.1491 26.4986 32.9787 27.3913 32.9787 28.4482C32.9787 29.5092 33.1513 30.4062 33.4964 31.1392C33.8416 31.8722 34.3146 32.4283 34.9155 32.8075C35.5163 33.1868 36.2003 33.3764 36.9673 33.3764C37.679 33.3764 38.299 33.2315 38.8274 32.9418C39.3601 32.652 39.7713 32.2429 40.0611 31.7145C40.3551 31.1818 40.5021 30.5554 40.5021 29.8352L41.0135 29.9311H37.2678V28.3011H42.4134V29.7905C42.4134 30.8899 42.179 31.8445 41.7102 32.6541C41.2457 33.4595 40.6023 34.0817 39.7798 34.5206C38.9616 34.9595 38.0241 35.179 36.9673 35.179C35.7827 35.179 34.7429 34.9062 33.848 34.3608C32.9574 33.8153 32.2628 33.0419 31.7642 32.0405C31.2656 31.0348 31.0163 29.8416 31.0163 28.4609C31.0163 27.4169 31.1612 26.4794 31.451 25.6484C31.7408 24.8175 32.1477 24.1122 32.6719 23.5327C33.2003 22.9489 33.8203 22.5036 34.532 22.1967C35.2479 21.8857 36.0298 21.7301 36.8778 21.7301C37.5852 21.7301 38.2436 21.8345 38.853 22.0433C39.4666 22.2521 40.0121 22.5483 40.4893 22.9318C40.9709 23.3153 41.3693 23.7713 41.6847 24.2997C42 24.8239 42.2131 25.4055 42.3239 26.0447H40.2976ZM48.9988 35.1982C48.0314 35.1982 47.1983 34.9915 46.4995 34.5781C45.8049 34.1605 45.2679 33.5746 44.8887 32.8203C44.5137 32.0618 44.3262 31.1733 44.3262 30.1548C44.3262 29.1491 44.5137 28.2628 44.8887 27.4957C45.2679 26.7287 45.7963 26.13 46.4739 25.6996C47.1557 25.2692 47.9526 25.054 48.8645 25.054C49.4185 25.054 49.9554 25.1456 50.4753 25.3288C50.9952 25.5121 51.4618 25.7997 51.8752 26.1918C52.2885 26.5838 52.6145 27.093 52.8532 27.7195C53.0918 28.3416 53.2111 29.098 53.2111 29.9886V30.6662H45.4064V29.2344H51.3382C51.3382 28.7315 51.236 28.2862 51.0314 27.8984C50.8269 27.5064 50.5392 27.1974 50.1685 26.9716C49.802 26.7457 49.3716 26.6328 48.8773 26.6328C48.3404 26.6328 47.8716 26.7649 47.4711 27.0291C47.0748 27.2891 46.7679 27.63 46.5506 28.0518C46.3375 28.4695 46.231 28.9233 46.231 29.4134V30.532C46.231 31.1882 46.3461 31.7464 46.5762 32.2067C46.8105 32.6669 47.1365 33.0185 47.5542 33.2614C47.9718 33.5 48.4597 33.6193 49.0179 33.6193C49.3801 33.6193 49.7104 33.5682 50.0087 33.4659C50.307 33.3594 50.5648 33.2017 50.7821 32.9929C50.9995 32.7841 51.1657 32.5263 51.2807 32.2195L53.0897 32.5455C52.9448 33.0781 52.6848 33.5447 52.3098 33.9453C51.9391 34.3416 51.4725 34.6506 50.91 34.8722C50.3517 35.0895 49.7147 35.1982 48.9988 35.1982ZM59.9148 25.1818V26.7159H54.5518V25.1818H59.9148ZM55.9901 22.8295H57.9013V32.1172C57.9013 32.4879 57.9567 32.767 58.0675 32.9545C58.1783 33.1378 58.321 33.2635 58.4957 33.3317C58.6747 33.3956 58.8686 33.4276 59.0774 33.4276C59.2308 33.4276 59.3651 33.4169 59.4801 33.3956C59.5952 33.3743 59.6847 33.3572 59.7486 33.3445L60.0938 34.9233C59.983 34.9659 59.8253 35.0085 59.6207 35.0511C59.4162 35.098 59.1605 35.1236 58.8537 35.1278C58.3509 35.1364 57.8821 35.0469 57.4474 34.8594C57.0128 34.6719 56.6612 34.3821 56.3928 33.9901C56.1243 33.598 55.9901 33.1058 55.9901 32.5135V22.8295ZM74.0859 25.348C74.0178 24.7429 73.7365 24.2741 73.2422 23.9418C72.7479 23.6051 72.1257 23.4368 71.3757 23.4368C70.8388 23.4368 70.3743 23.522 69.9822 23.6925C69.5902 23.8587 69.2855 24.0888 69.0682 24.3828C68.8551 24.6726 68.7486 25.0028 68.7486 25.3736C68.7486 25.6847 68.821 25.9531 68.9659 26.179C69.1151 26.4048 69.3089 26.5945 69.5476 26.7479C69.7905 26.897 70.0504 27.0227 70.3274 27.125C70.6044 27.223 70.8707 27.304 71.1264 27.3679L72.4048 27.7003C72.8224 27.8026 73.2507 27.9411 73.6896 28.1158C74.1286 28.2905 74.5355 28.5206 74.9105 28.8061C75.2855 29.0916 75.5881 29.4453 75.8182 29.8672C76.0526 30.2891 76.1697 30.794 76.1697 31.3821C76.1697 32.1236 75.978 32.782 75.5945 33.3572C75.2152 33.9325 74.6634 34.3864 73.9389 34.7188C73.2188 35.0511 72.3473 35.2173 71.3246 35.2173C70.3445 35.2173 69.4964 35.0618 68.7805 34.7507C68.0646 34.4396 67.5043 33.9986 67.0994 33.4276C66.6946 32.8523 66.4709 32.1705 66.4283 31.3821H68.4098C68.4482 31.8551 68.6016 32.2493 68.87 32.5646C69.1428 32.8757 69.4901 33.108 69.9119 33.2614C70.3381 33.4105 70.8047 33.4851 71.3118 33.4851C71.87 33.4851 72.3665 33.3977 72.8011 33.223C73.2401 33.044 73.5852 32.7969 73.8366 32.4815C74.0881 32.1619 74.2138 31.7891 74.2138 31.3629C74.2138 30.9751 74.103 30.6577 73.8814 30.4105C73.6641 30.1634 73.3679 29.9588 72.9929 29.7969C72.6222 29.6349 72.2024 29.4922 71.7337 29.3686L70.1868 28.9467C69.1385 28.6612 68.3075 28.2415 67.6939 27.6875C67.0845 27.1335 66.7798 26.4006 66.7798 25.4886C66.7798 24.7344 66.9844 24.076 67.3935 23.5135C67.8026 22.951 68.3565 22.5142 69.0554 22.2031C69.7543 21.8878 70.5426 21.7301 71.4205 21.7301C72.3068 21.7301 73.0888 21.8857 73.7663 22.1967C74.4482 22.5078 74.9851 22.9361 75.3771 23.4815C75.7692 24.0227 75.9737 24.6449 75.9908 25.348H74.0859ZM82.9597 25.1818V26.7159H77.5968V25.1818H82.9597ZM79.035 22.8295H80.9462V32.1172C80.9462 32.4879 81.0016 32.767 81.1124 32.9545C81.2232 33.1378 81.3659 33.2635 81.5407 33.3317C81.7196 33.3956 81.9135 33.4276 82.1223 33.4276C82.2757 33.4276 82.41 33.4169 82.525 33.3956C82.6401 33.3743 82.7296 33.3572 82.7935 33.3445L83.1387 34.9233C83.0279 34.9659 82.8702 35.0085 82.6657 35.0511C82.4611 35.098 82.2054 35.1236 81.8986 35.1278C81.3958 35.1364 80.927 35.0469 80.4924 34.8594C80.0577 34.6719 79.7061 34.3821 79.4377 33.9901C79.1692 33.598 79.035 33.1058 79.035 32.5135V22.8295ZM87.9311 35.2173C87.3089 35.2173 86.7464 35.1023 86.2436 34.8722C85.7408 34.6378 85.3423 34.299 85.0483 33.8558C84.7585 33.4126 84.6136 32.8693 84.6136 32.2259C84.6136 31.6719 84.7202 31.2159 84.9332 30.858C85.1463 30.5 85.4339 30.2166 85.7962 30.0078C86.1584 29.799 86.5632 29.6413 87.0107 29.5348C87.4581 29.4283 87.9141 29.3473 88.3786 29.2919C88.9666 29.2237 89.4439 29.1683 89.8104 29.1257C90.1768 29.0788 90.4432 29.0043 90.6094 28.902C90.7756 28.7997 90.8587 28.6335 90.8587 28.4034V28.3587C90.8587 27.8004 90.701 27.3679 90.3857 27.0611C90.0746 26.7543 89.6101 26.6009 88.9922 26.6009C88.3487 26.6009 87.8416 26.7436 87.4709 27.0291C87.1044 27.3104 86.8509 27.6236 86.7102 27.9688L84.9141 27.5597C85.1271 26.9631 85.4382 26.4815 85.8473 26.1151C86.2607 25.7443 86.7358 25.4759 87.2727 25.3097C87.8097 25.1392 88.3743 25.054 88.9666 25.054C89.3587 25.054 89.7741 25.1009 90.2131 25.1946C90.6563 25.2841 91.0696 25.4503 91.4531 25.6932C91.8409 25.9361 92.1584 26.2834 92.4055 26.7351C92.6527 27.1825 92.7763 27.7642 92.7763 28.4801V35H90.9098V33.6577H90.8331C90.7095 33.9048 90.5241 34.1477 90.277 34.3864C90.0298 34.625 89.7124 34.8232 89.3246 34.9808C88.9368 35.1385 88.4723 35.2173 87.9311 35.2173ZM88.3466 33.6832C88.875 33.6832 89.3267 33.5788 89.7017 33.37C90.081 33.1612 90.3686 32.8885 90.5646 32.5518C90.7649 32.2109 90.8651 31.8466 90.8651 31.4588V30.1932C90.7969 30.2614 90.6648 30.3253 90.4688 30.3849C90.277 30.4403 90.0575 30.4893 89.8104 30.532C89.5632 30.5703 89.3224 30.6065 89.0881 30.6406C88.8537 30.6705 88.6577 30.696 88.5 30.7173C88.1293 30.7642 87.7905 30.843 87.4837 30.9538C87.1811 31.0646 86.9382 31.2244 86.755 31.4332C86.576 31.6378 86.4865 31.9105 86.4865 32.2514C86.4865 32.7244 86.6612 33.0824 87.0107 33.3253C87.3601 33.5639 87.8054 33.6832 88.3466 33.6832ZM95.3219 35V25.1818H97.1692V26.7415H97.2715C97.4505 26.2131 97.7658 25.7976 98.2175 25.495C98.6735 25.1882 99.1891 25.0348 99.7644 25.0348C99.8837 25.0348 100.024 25.0391 100.186 25.0476C100.352 25.0561 100.482 25.0668 100.576 25.0795V26.9077C100.499 26.8864 100.363 26.8629 100.167 26.8374C99.9711 26.8075 99.775 26.7926 99.579 26.7926C99.1273 26.7926 98.7246 26.8885 98.3709 27.0803C98.0215 27.2678 97.7445 27.5298 97.54 27.8665C97.3354 28.1989 97.2331 28.5781 97.2331 29.0043V35H95.3219ZM107.393 25.1818V26.7159H102.03V25.1818H107.393ZM103.469 22.8295H105.38V32.1172C105.38 32.4879 105.435 32.767 105.546 32.9545C105.657 33.1378 105.8 33.2635 105.974 33.3317C106.153 33.3956 106.347 33.4276 106.556 33.4276C106.709 33.4276 106.844 33.4169 106.959 33.3956C107.074 33.3743 107.163 33.3572 107.227 33.3445L107.572 34.9233C107.461 34.9659 107.304 35.0085 107.099 35.0511C106.895 35.098 106.639 35.1236 106.332 35.1278C105.829 35.1364 105.361 35.0469 104.926 34.8594C104.491 34.6719 104.14 34.3821 103.871 33.9901C103.603 33.598 103.469 33.1058 103.469 32.5135V22.8295ZM113.634 35.1982C112.666 35.1982 111.833 34.9915 111.134 34.5781C110.44 34.1605 109.903 33.5746 109.523 32.8203C109.148 32.0618 108.961 31.1733 108.961 30.1548C108.961 29.1491 109.148 28.2628 109.523 27.4957C109.903 26.7287 110.431 26.13 111.109 25.6996C111.79 25.2692 112.587 25.054 113.499 25.054C114.053 25.054 114.59 25.1456 115.11 25.3288C115.63 25.5121 116.097 25.7997 116.51 26.1918C116.923 26.5838 117.249 27.093 117.488 27.7195C117.727 28.3416 117.846 29.098 117.846 29.9886V30.6662H110.041V29.2344H115.973C115.973 28.7315 115.871 28.2862 115.666 27.8984C115.462 27.5064 115.174 27.1974 114.803 26.9716C114.437 26.7457 114.006 26.6328 113.512 26.6328C112.975 26.6328 112.506 26.7649 112.106 27.0291C111.71 27.2891 111.403 27.63 111.185 28.0518C110.972 28.4695 110.866 28.9233 110.866 29.4134V30.532C110.866 31.1882 110.981 31.7464 111.211 32.2067C111.445 32.6669 111.771 33.0185 112.189 33.2614C112.607 33.5 113.094 33.6193 113.653 33.6193C114.015 33.6193 114.345 33.5682 114.643 33.4659C114.942 33.3594 115.2 33.2017 115.417 32.9929C115.634 32.7841 115.8 32.5263 115.915 32.2195L117.724 32.5455C117.58 33.0781 117.32 33.5447 116.945 33.9453C116.574 34.3416 116.107 34.6506 115.545 34.8722C114.987 35.0895 114.349 35.1982 113.634 35.1982ZM123.642 35.1918C122.849 35.1918 122.142 34.9893 121.52 34.5845C120.902 34.1754 120.416 33.5937 120.062 32.8395C119.713 32.081 119.538 31.1712 119.538 30.1101C119.538 29.049 119.715 28.1413 120.069 27.3871C120.427 26.6328 120.917 26.0554 121.539 25.6548C122.161 25.2543 122.866 25.054 123.655 25.054C124.264 25.054 124.754 25.1562 125.125 25.3608C125.5 25.5611 125.79 25.7955 125.994 26.0639C126.203 26.3324 126.365 26.5689 126.48 26.7734H126.595V21.9091H128.506V35H126.64V33.4723H126.48C126.365 33.6811 126.199 33.9197 125.981 34.1882C125.768 34.4567 125.474 34.6911 125.099 34.8913C124.724 35.0916 124.238 35.1918 123.642 35.1918ZM124.064 33.5618C124.613 33.5618 125.078 33.4169 125.457 33.1271C125.841 32.8331 126.131 32.4261 126.327 31.9062C126.527 31.3864 126.627 30.7812 126.627 30.0909C126.627 29.4091 126.529 28.8125 126.333 28.3011C126.137 27.7898 125.849 27.3913 125.47 27.1058C125.091 26.8203 124.622 26.6776 124.064 26.6776C123.488 26.6776 123.009 26.8267 122.626 27.125C122.242 27.4233 121.952 27.8303 121.756 28.3459C121.564 28.8615 121.469 29.4432 121.469 30.0909C121.469 30.7472 121.567 31.3374 121.763 31.8615C121.959 32.3857 122.248 32.8011 122.632 33.108C123.02 33.4105 123.497 33.5618 124.064 33.5618Z" fill="url(#paint0_linear_1_368)"/>
<path d="M5 1H155V-1H5V1ZM159 5V51H161V5H159ZM155 55H5V57H155V55ZM1 51V5H-1V51H1ZM5 55C2.79086 55 1 53.2091 1 51H-1C-1 54.3137 1.68629 57 5 57V55ZM159 51C159 53.2091 157.209 55 155 55V57C158.314 57 161 54.3137 161 51H159ZM155 1C157.209 1 159 2.79086 159 5H161C161 1.68629 158.314 -1 155 -1V1ZM5 -1C1.68629 -1 -1 1.68629 -1 5H1C1 2.79086 2.79086 1 5 1V-1Z" fill="url(#paint1_linear_1_368)"/>
<defs>
<linearGradient id="paint0_linear_1_368" x1="30" y1="30.2917" x2="129.976" y2="32.0727" gradientUnits="userSpaceOnUse">
<stop stop-color="#2EDDC1"/>
<stop offset="1" stop-color="#45DEFC"/>
</linearGradient>
<linearGradient id="paint1_linear_1_368" x1="6.00186e-07" y1="33.8333" x2="159.993" y2="35.6249" gradientUnits="userSpaceOnUse">
<stop stop-color="#2EDDC1"/>
<stop offset="1" stop-color="#45DEFC"/>
</linearGradient>
</defs>
</svg>
