<svg width="118" height="47" viewBox="0 0 118 47" fill="none" xmlns="http://www.w3.org/2000/svg">
<path d="M27.625 20.4205C27.5644 19.8826 27.3144 19.4659 26.875 19.1705C26.4356 18.8712 25.8826 18.7216 25.2159 18.7216C24.7386 18.7216 24.3258 18.7973 23.9773 18.9489C23.6288 19.0966 23.358 19.3011 23.1648 19.5625C22.9754 19.8201 22.8807 20.1136 22.8807 20.4432C22.8807 20.7197 22.9451 20.9583 23.0739 21.1591C23.2064 21.3598 23.3788 21.5284 23.5909 21.6648C23.8068 21.7973 24.0379 21.9091 24.2841 22C24.5303 22.0871 24.767 22.1591 24.9943 22.2159L26.1307 22.5114C26.5019 22.6023 26.8826 22.7254 27.2727 22.8807C27.6629 23.036 28.0246 23.2405 28.358 23.4943C28.6913 23.7481 28.9602 24.0625 29.1648 24.4375C29.3731 24.8125 29.4773 25.2614 29.4773 25.7841C29.4773 26.4432 29.3068 27.0284 28.9659 27.5398C28.6288 28.0511 28.1383 28.4545 27.4943 28.75C26.8542 29.0455 26.0795 29.1932 25.1705 29.1932C24.2992 29.1932 23.5455 29.0549 22.9091 28.7784C22.2727 28.5019 21.7746 28.1098 21.4148 27.6023C21.0549 27.0909 20.8561 26.4848 20.8182 25.7841H22.5795C22.6136 26.2045 22.75 26.5549 22.9886 26.8352C23.2311 27.1117 23.5398 27.3182 23.9148 27.4545C24.2936 27.5871 24.7083 27.6534 25.1591 27.6534C25.6553 27.6534 26.0966 27.5758 26.483 27.4205C26.8731 27.2614 27.1799 27.0417 27.4034 26.7614C27.6269 26.4773 27.7386 26.1458 27.7386 25.767C27.7386 25.4223 27.6402 25.1402 27.4432 24.9205C27.25 24.7008 26.9867 24.5189 26.6534 24.375C26.3239 24.2311 25.9508 24.1042 25.5341 23.9943L24.1591 23.6193C23.2273 23.3655 22.4886 22.9924 21.9432 22.5C21.4015 22.0076 21.1307 21.3561 21.1307 20.5455C21.1307 19.875 21.3125 19.2898 21.6761 18.7898C22.0398 18.2898 22.5322 17.9015 23.1534 17.625C23.7746 17.3447 24.4754 17.2045 25.2557 17.2045C26.0436 17.2045 26.7386 17.3428 27.3409 17.6193C27.947 17.8958 28.4242 18.2765 28.7727 18.7614C29.1212 19.2424 29.303 19.7955 29.3182 20.4205H27.625ZM36.9673 25.3807V20.2727H38.6719V29H37.0014V27.4886H36.9105C36.7098 27.9545 36.3878 28.3428 35.9446 28.6534C35.5052 28.9602 34.9579 29.1136 34.3026 29.1136C33.742 29.1136 33.2457 28.9905 32.8139 28.7443C32.3859 28.4943 32.0488 28.125 31.8026 27.6364C31.5601 27.1477 31.4389 26.5436 31.4389 25.8239V20.2727H33.1378V25.6193C33.1378 26.214 33.3026 26.6875 33.6321 27.0398C33.9616 27.392 34.3897 27.5682 34.9162 27.5682C35.2344 27.5682 35.5507 27.4886 35.8651 27.3295C36.1832 27.1705 36.4465 26.9299 36.6548 26.608C36.867 26.286 36.9711 25.8769 36.9673 25.3807ZM41.0909 29V17.3636H42.7898V21.6875H42.892C42.9905 21.5057 43.1326 21.2955 43.3182 21.0568C43.5038 20.8182 43.7614 20.6098 44.0909 20.4318C44.4205 20.25 44.8561 20.1591 45.3977 20.1591C46.1023 20.1591 46.7311 20.3371 47.2841 20.6932C47.8371 21.0492 48.2708 21.5625 48.5852 22.233C48.9034 22.9034 49.0625 23.7102 49.0625 24.6534C49.0625 25.5966 48.9053 26.4053 48.5909 27.0795C48.2765 27.75 47.8447 28.267 47.2955 28.6307C46.7462 28.9905 46.1193 29.1705 45.4148 29.1705C44.8845 29.1705 44.4508 29.0814 44.1136 28.9034C43.7803 28.7254 43.5189 28.517 43.3295 28.2784C43.1402 28.0398 42.9943 27.8277 42.892 27.642H42.75V29H41.0909ZM42.7557 24.6364C42.7557 25.25 42.8447 25.7879 43.0227 26.25C43.2008 26.7121 43.4583 27.0739 43.7955 27.3352C44.1326 27.5928 44.5455 27.7216 45.0341 27.7216C45.5417 27.7216 45.9659 27.5871 46.3068 27.3182C46.6477 27.0455 46.9053 26.6761 47.0795 26.2102C47.2576 25.7443 47.3466 25.2197 47.3466 24.6364C47.3466 24.0606 47.2595 23.5436 47.0852 23.0852C46.9148 22.6269 46.6572 22.2652 46.3125 22C45.9716 21.7348 45.5455 21.6023 45.0341 21.6023C44.5417 21.6023 44.125 21.7292 43.7841 21.983C43.447 22.2367 43.1913 22.5909 43.017 23.0455C42.8428 23.5 42.7557 24.0303 42.7557 24.6364ZM57.5099 22.4034L55.9702 22.6761C55.9058 22.4792 55.8035 22.2917 55.6634 22.1136C55.527 21.9356 55.3414 21.7898 55.1065 21.6761C54.8717 21.5625 54.5781 21.5057 54.2259 21.5057C53.7448 21.5057 53.3433 21.6136 53.0213 21.8295C52.6993 22.0417 52.5384 22.3163 52.5384 22.6534C52.5384 22.9451 52.6463 23.1799 52.8622 23.358C53.0781 23.536 53.4266 23.6818 53.9077 23.7955L55.294 24.1136C56.0971 24.2992 56.6955 24.5852 57.0895 24.9716C57.4834 25.358 57.6804 25.8598 57.6804 26.4773C57.6804 27 57.5289 27.4659 57.2259 27.875C56.9266 28.2803 56.508 28.5985 55.9702 28.8295C55.4361 29.0606 54.8168 29.1761 54.1122 29.1761C53.1349 29.1761 52.3376 28.9678 51.7202 28.5511C51.1027 28.1307 50.724 27.5341 50.5838 26.7614L52.2259 26.5114C52.3281 26.9394 52.5384 27.2633 52.8565 27.483C53.1747 27.6989 53.5895 27.8068 54.1009 27.8068C54.6577 27.8068 55.1027 27.6913 55.4361 27.4602C55.7694 27.2254 55.9361 26.9394 55.9361 26.6023C55.9361 26.3295 55.8338 26.1004 55.6293 25.9148C55.4285 25.7292 55.1198 25.589 54.7031 25.4943L53.2259 25.1705C52.4115 24.9848 51.8092 24.6894 51.419 24.2841C51.0327 23.8788 50.8395 23.3655 50.8395 22.7443C50.8395 22.2292 50.9834 21.7784 51.2713 21.392C51.5592 21.0057 51.9569 20.7045 52.4645 20.4886C52.9721 20.2689 53.5535 20.1591 54.2088 20.1591C55.152 20.1591 55.8944 20.3636 56.4361 20.7727C56.9777 21.178 57.3357 21.7216 57.5099 22.4034ZM63.2244 29.1761C62.3797 29.1761 61.6525 28.9848 61.0426 28.6023C60.4366 28.2159 59.9706 27.6837 59.6449 27.0057C59.3191 26.3277 59.1562 25.5511 59.1562 24.6761C59.1562 23.7898 59.3229 23.0076 59.6562 22.3295C59.9896 21.6477 60.4593 21.1155 61.0653 20.733C61.6714 20.3504 62.3854 20.1591 63.2074 20.1591C63.8703 20.1591 64.4612 20.2822 64.9801 20.5284C65.4991 20.7708 65.9176 21.1117 66.2358 21.5511C66.5578 21.9905 66.7491 22.5038 66.8097 23.0909H65.1562C65.0653 22.6818 64.857 22.3295 64.5312 22.0341C64.2093 21.7386 63.7775 21.5909 63.2358 21.5909C62.7623 21.5909 62.3475 21.7159 61.9915 21.9659C61.6392 22.2121 61.3646 22.5644 61.1676 23.0227C60.9706 23.4773 60.8722 24.0152 60.8722 24.6364C60.8722 25.2727 60.9688 25.822 61.1619 26.2841C61.3551 26.7462 61.6278 27.1042 61.9801 27.358C62.3362 27.6117 62.7547 27.7386 63.2358 27.7386C63.5578 27.7386 63.8494 27.6799 64.1108 27.5625C64.3759 27.4413 64.5975 27.2689 64.7756 27.0455C64.9574 26.822 65.0843 26.553 65.1562 26.2386H66.8097C66.7491 26.803 66.5653 27.3068 66.2585 27.75C65.9517 28.1932 65.5407 28.5417 65.0256 28.7955C64.5142 29.0492 63.9138 29.1761 63.2244 29.1761ZM68.6264 29V20.2727H70.2685V21.6591H70.3594C70.5185 21.1894 70.7988 20.8201 71.2003 20.5511C71.6056 20.2784 72.0639 20.142 72.5753 20.142C72.6813 20.142 72.8063 20.1458 72.9503 20.1534C73.098 20.161 73.2135 20.1705 73.2969 20.1818V21.8068C73.2287 21.7879 73.1075 21.767 72.9332 21.7443C72.759 21.7178 72.5848 21.7045 72.4105 21.7045C72.009 21.7045 71.651 21.7898 71.3366 21.9602C71.026 22.1269 70.7798 22.3598 70.598 22.6591C70.4162 22.9545 70.3253 23.2917 70.3253 23.6705V29H68.6264ZM74.767 29V20.2727H76.4659V29H74.767ZM75.625 18.9261C75.3295 18.9261 75.0758 18.8277 74.8636 18.6307C74.6553 18.4299 74.5511 18.1913 74.5511 17.9148C74.5511 17.6345 74.6553 17.3958 74.8636 17.1989C75.0758 16.9981 75.3295 16.8977 75.625 16.8977C75.9205 16.8977 76.1723 16.9981 76.3807 17.1989C76.5928 17.3958 76.6989 17.6345 76.6989 17.9148C76.6989 18.1913 76.5928 18.4299 76.3807 18.6307C76.1723 18.8277 75.9205 18.9261 75.625 18.9261ZM78.8878 29V17.3636H80.5866V21.6875H80.6889C80.7874 21.5057 80.9295 21.2955 81.1151 21.0568C81.3007 20.8182 81.5582 20.6098 81.8878 20.4318C82.2173 20.25 82.6529 20.1591 83.1946 20.1591C83.8991 20.1591 84.5279 20.3371 85.081 20.6932C85.634 21.0492 86.0677 21.5625 86.3821 22.233C86.7003 22.9034 86.8594 23.7102 86.8594 24.6534C86.8594 25.5966 86.7022 26.4053 86.3878 27.0795C86.0734 27.75 85.6416 28.267 85.0923 28.6307C84.5431 28.9905 83.9162 29.1705 83.2116 29.1705C82.6813 29.1705 82.2476 29.0814 81.9105 28.9034C81.5772 28.7254 81.3158 28.517 81.1264 28.2784C80.937 28.0398 80.7912 27.8277 80.6889 27.642H80.5469V29H78.8878ZM80.5526 24.6364C80.5526 25.25 80.6416 25.7879 80.8196 26.25C80.9976 26.7121 81.2552 27.0739 81.5923 27.3352C81.9295 27.5928 82.3423 27.7216 82.831 27.7216C83.3385 27.7216 83.7628 27.5871 84.1037 27.3182C84.4446 27.0455 84.7022 26.6761 84.8764 26.2102C85.0545 25.7443 85.1435 25.2197 85.1435 24.6364C85.1435 24.0606 85.0563 23.5436 84.8821 23.0852C84.7116 22.6269 84.4541 22.2652 84.1094 22C83.7685 21.7348 83.3423 21.6023 82.831 21.6023C82.3385 21.6023 81.9219 21.7292 81.581 21.983C81.2438 22.2367 80.9882 22.5909 80.8139 23.0455C80.6397 23.5 80.5526 24.0303 80.5526 24.6364ZM92.5284 29.1761C91.6686 29.1761 90.928 28.9924 90.3068 28.625C89.6894 28.2538 89.2121 27.733 88.875 27.0625C88.5417 26.3883 88.375 25.5985 88.375 24.6932C88.375 23.7992 88.5417 23.0114 88.875 22.3295C89.2121 21.6477 89.6818 21.1155 90.2841 20.733C90.8902 20.3504 91.5985 20.1591 92.4091 20.1591C92.9015 20.1591 93.3788 20.2405 93.8409 20.4034C94.303 20.5663 94.7178 20.822 95.0852 21.1705C95.4527 21.5189 95.7424 21.9716 95.9545 22.5284C96.1667 23.0814 96.2727 23.7538 96.2727 24.5455V25.1477H89.3352V23.875H94.608C94.608 23.428 94.517 23.0322 94.3352 22.6875C94.1534 22.339 93.8977 22.0644 93.5682 21.8636C93.2424 21.6629 92.8598 21.5625 92.4205 21.5625C91.9432 21.5625 91.5265 21.6799 91.1705 21.9148C90.8182 22.1458 90.5455 22.4489 90.3523 22.8239C90.1629 23.1951 90.0682 23.5985 90.0682 24.0341V25.0284C90.0682 25.6117 90.1705 26.108 90.375 26.517C90.5833 26.9261 90.8731 27.2386 91.2443 27.4545C91.6155 27.6667 92.0492 27.7727 92.5455 27.7727C92.8674 27.7727 93.161 27.7273 93.4261 27.6364C93.6913 27.5417 93.9205 27.4015 94.1136 27.2159C94.3068 27.0303 94.4545 26.8011 94.5568 26.5284L96.1648 26.8182C96.036 27.2917 95.8049 27.7064 95.4716 28.0625C95.142 28.4148 94.7273 28.6894 94.2273 28.8864C93.7311 29.0795 93.1648 29.1761 92.5284 29.1761Z" fill="url(#paint0_linear_1_2489)"/>
<path d="M5 1H113V-1H5V1ZM117 5V42H119V5H117ZM113 46H5V48H113V46ZM1 42V5H-1V42H1ZM5 46C2.79086 46 1 44.2091 1 42H-1C-1 45.3137 1.68629 48 5 48V46ZM117 42C117 44.2091 115.209 46 113 46V48C116.314 48 119 45.3137 119 42H117ZM113 1C115.209 1 117 2.79086 117 5H119C119 1.68629 116.314 -1 113 -1V1ZM5 -1C1.68629 -1 -1 1.68629 -1 5H1C1 2.79086 2.79086 1 5 1V-1Z" fill="url(#paint1_linear_1_2489)"/>
<defs>
<linearGradient id="paint0_linear_1_2489" x1="20" y1="25.4792" x2="97.9862" y2="26.7339" gradientUnits="userSpaceOnUse">
<stop stop-color="#2EDDC1"/>
<stop offset="1" stop-color="#45DEFC"/>
</linearGradient>
<linearGradient id="paint1_linear_1_2489" x1="4.42637e-07" y1="28.3958" x2="117.998" y2="29.5569" gradientUnits="userSpaceOnUse">
<stop stop-color="#2EDDC1"/>
<stop offset="1" stop-color="#45DEFC"/>
</linearGradient>
</defs>
</svg>
