<svg width="107" height="34" viewBox="0 0 107 34" fill="none" xmlns="http://www.w3.org/2000/svg">
<path d="M28.0092 15.5348C27.9131 15.2332 27.7839 14.9631 27.6214 14.7244C27.4624 14.4825 27.2718 14.277 27.0497 14.108C26.8277 13.9356 26.5741 13.8047 26.2891 13.7152C26.0073 13.6257 25.6974 13.581 25.3594 13.581C24.786 13.581 24.2689 13.7285 23.8082 14.0234C23.3475 14.3184 22.983 14.7509 22.7145 15.321C22.4493 15.8878 22.3168 16.5821 22.3168 17.4041C22.3168 18.2294 22.451 18.9271 22.7195 19.4972C22.9879 20.0672 23.3558 20.4998 23.8232 20.7947C24.2905 21.0897 24.8224 21.2372 25.419 21.2372C25.9725 21.2372 26.4548 21.1245 26.8658 20.8991C27.2801 20.6738 27.5999 20.3556 27.8253 19.9446C28.054 19.5303 28.1683 19.0431 28.1683 18.483L28.5661 18.5575H25.6527V17.2898H29.6548V18.4482C29.6548 19.3033 29.4725 20.0457 29.108 20.6754C28.7467 21.3018 28.2462 21.7857 27.6065 22.1271C26.9702 22.4685 26.241 22.6392 25.419 22.6392C24.4976 22.6392 23.6889 22.4271 22.9929 22.0028C22.3002 21.5786 21.7599 20.977 21.3722 20.1982C20.9844 19.416 20.7905 18.4879 20.7905 17.4141C20.7905 16.602 20.9032 15.8729 21.1286 15.2266C21.3539 14.5803 21.6705 14.0317 22.0781 13.581C22.4891 13.1269 22.9714 12.7805 23.5249 12.5419C24.0817 12.3 24.6899 12.179 25.3494 12.179C25.8996 12.179 26.4117 12.2602 26.8857 12.4226C27.3629 12.585 27.7872 12.8153 28.1584 13.1136C28.5329 13.4119 28.8428 13.7666 29.0881 14.1776C29.3333 14.5852 29.4991 15.0376 29.5852 15.5348H28.0092ZM34.7768 22.6541C34.0244 22.6541 33.3765 22.4934 32.8329 22.1719C32.2927 21.8471 31.8751 21.3913 31.5801 20.8047C31.2884 20.2147 31.1426 19.5237 31.1426 18.7315C31.1426 17.9493 31.2884 17.2599 31.5801 16.6634C31.8751 16.0668 32.286 15.6011 32.813 15.2663C33.3433 14.9316 33.9631 14.7642 34.6724 14.7642C35.1033 14.7642 35.5209 14.8355 35.9252 14.978C36.3296 15.1205 36.6925 15.3442 37.014 15.6491C37.3355 15.9541 37.5891 16.3501 37.7747 16.8374C37.9603 17.3213 38.0531 17.9096 38.0531 18.6023V19.1293H31.9828V18.0156H36.5964C36.5964 17.6245 36.5169 17.2782 36.3578 16.9766C36.1987 16.6716 35.975 16.4313 35.6866 16.2557C35.4016 16.08 35.0668 15.9922 34.6824 15.9922C34.2647 15.9922 33.9002 16.0949 33.5886 16.3004C33.2804 16.5026 33.0417 16.7678 32.8727 17.0959C32.707 17.4207 32.6241 17.7737 32.6241 18.1548V19.0249C32.6241 19.5353 32.7136 19.9695 32.8926 20.3274C33.0749 20.6854 33.3284 20.9588 33.6532 21.1477C33.978 21.3333 34.3575 21.4261 34.7917 21.4261C35.0734 21.4261 35.3303 21.3864 35.5623 21.3068C35.7943 21.224 35.9949 21.1013 36.1639 20.9389C36.3329 20.7765 36.4622 20.576 36.5517 20.3374L37.9586 20.5909C37.8459 21.0052 37.6438 21.3681 37.3521 21.6797C37.0637 21.9879 36.7008 22.2282 36.2633 22.4006C35.8291 22.5696 35.3336 22.6541 34.7768 22.6541ZM43.267 14.8636V16.0568H39.0959V14.8636H43.267ZM40.2145 13.0341H41.701V20.2578C41.701 20.5462 41.7441 20.7633 41.8303 20.9091C41.9164 21.0516 42.0275 21.1494 42.1634 21.2024C42.3026 21.2521 42.4534 21.277 42.6158 21.277C42.7351 21.277 42.8395 21.2687 42.929 21.2521C43.0185 21.2356 43.0881 21.2223 43.1378 21.2124L43.4062 22.4403C43.3201 22.4735 43.1974 22.5066 43.0384 22.5398C42.8793 22.5762 42.6804 22.5961 42.4418 22.5994C42.0507 22.6061 41.6861 22.5365 41.348 22.3906C41.0099 22.2448 40.7365 22.0194 40.5277 21.7145C40.3189 21.4096 40.2145 21.0268 40.2145 20.5661V13.0341ZM52.032 22.5H48.7358V12.3182H52.1364C53.134 12.3182 53.9908 12.522 54.7067 12.9297C55.4226 13.334 55.9711 13.9157 56.3523 14.6747C56.7367 15.4304 56.929 16.3369 56.929 17.3942C56.929 18.4548 56.7351 19.3662 56.3473 20.1286C55.9628 20.8909 55.406 21.4775 54.6768 21.8885C53.9477 22.2962 53.0661 22.5 52.032 22.5ZM50.272 21.1577H51.9474C52.723 21.1577 53.3677 21.0118 53.8814 20.7202C54.3951 20.4252 54.7796 19.9993 55.0348 19.4425C55.29 18.8823 55.4176 18.1996 55.4176 17.3942C55.4176 16.5954 55.29 15.9176 55.0348 15.3608C54.7829 14.804 54.4067 14.3814 53.9062 14.093C53.4058 13.8047 52.7843 13.6605 52.0419 13.6605H50.272V21.1577ZM62.0112 22.6541C61.2588 22.6541 60.6109 22.4934 60.0673 22.1719C59.527 21.8471 59.1094 21.3913 58.8145 20.8047C58.5228 20.2147 58.377 19.5237 58.377 18.7315C58.377 17.9493 58.5228 17.2599 58.8145 16.6634C59.1094 16.0668 59.5204 15.6011 60.0474 15.2663C60.5777 14.9316 61.1975 14.7642 61.9068 14.7642C62.3377 14.7642 62.7553 14.8355 63.1596 14.978C63.564 15.1205 63.9269 15.3442 64.2484 15.6491C64.5699 15.9541 64.8234 16.3501 65.0091 16.8374C65.1947 17.3213 65.2875 17.9096 65.2875 18.6023V19.1293H59.2172V18.0156H63.8308C63.8308 17.6245 63.7512 17.2782 63.5922 16.9766C63.4331 16.6716 63.2093 16.4313 62.921 16.2557C62.6359 16.08 62.3012 15.9922 61.9167 15.9922C61.4991 15.9922 61.1345 16.0949 60.823 16.3004C60.5147 16.5026 60.2761 16.7678 60.1071 17.0959C59.9413 17.4207 59.8585 17.7737 59.8585 18.1548V19.0249C59.8585 19.5353 59.948 19.9695 60.127 20.3274C60.3092 20.6854 60.5628 20.9588 60.8876 21.1477C61.2124 21.3333 61.5919 21.4261 62.0261 21.4261C62.3078 21.4261 62.5647 21.3864 62.7967 21.3068C63.0287 21.224 63.2292 21.1013 63.3983 20.9389C63.5673 20.7765 63.6966 20.576 63.786 20.3374L65.193 20.5909C65.0803 21.0052 64.8781 21.3681 64.5865 21.6797C64.2981 21.9879 63.9352 22.2282 63.4977 22.4006C63.0635 22.5696 62.568 22.6541 62.0112 22.6541ZM66.9368 22.5V14.8636H68.3636V16.1065H68.4581C68.6172 15.6856 68.8774 15.3575 69.2386 15.1222C69.5999 14.8835 70.0324 14.7642 70.5362 14.7642C71.0466 14.7642 71.4742 14.8835 71.8189 15.1222C72.1669 15.3608 72.4238 15.6889 72.5895 16.1065H72.669C72.8513 15.6989 73.1413 15.3741 73.5391 15.1321C73.9368 14.8868 74.4107 14.7642 74.9609 14.7642C75.6536 14.7642 76.2188 14.9813 76.6562 15.4155C77.0971 15.8497 77.3175 16.5043 77.3175 17.3793V22.5H75.831V17.5185C75.831 17.0014 75.6901 16.6269 75.4084 16.3949C75.1267 16.1629 74.7902 16.0469 74.3991 16.0469C73.9152 16.0469 73.5391 16.196 73.2706 16.4943C73.0021 16.7893 72.8679 17.1688 72.8679 17.6328V22.5H71.3864V17.424C71.3864 17.0097 71.2571 16.6766 70.9986 16.4247C70.7401 16.1728 70.4036 16.0469 69.9893 16.0469C69.7076 16.0469 69.4474 16.1214 69.2088 16.2706C68.9735 16.4164 68.7829 16.6203 68.6371 16.8821C68.4946 17.1439 68.4233 17.4472 68.4233 17.7919V22.5H66.9368ZM82.5265 22.6541C81.8105 22.6541 81.1858 22.4901 80.6522 22.1619C80.1185 21.8338 79.7042 21.3748 79.4093 20.7848C79.1143 20.1948 78.9668 19.5054 78.9668 18.7166C78.9668 17.9245 79.1143 17.2318 79.4093 16.6385C79.7042 16.0452 80.1185 15.5845 80.6522 15.2564C81.1858 14.9283 81.8105 14.7642 82.5265 14.7642C83.2424 14.7642 83.8671 14.9283 84.4007 15.2564C84.9344 15.5845 85.3487 16.0452 85.6436 16.6385C85.9386 17.2318 86.0861 17.9245 86.0861 18.7166C86.0861 19.5054 85.9386 20.1948 85.6436 20.7848C85.3487 21.3748 84.9344 21.8338 84.4007 22.1619C83.8671 22.4901 83.2424 22.6541 82.5265 22.6541ZM82.5314 21.4062C82.9954 21.4062 83.3799 21.2836 83.6848 21.0384C83.9898 20.7931 84.2151 20.4666 84.361 20.0589C84.5101 19.6513 84.5847 19.2022 84.5847 18.7116C84.5847 18.2244 84.5101 17.777 84.361 17.3693C84.2151 16.9583 83.9898 16.6286 83.6848 16.38C83.3799 16.1314 82.9954 16.0071 82.5314 16.0071C82.0641 16.0071 81.6763 16.1314 81.3681 16.38C81.0632 16.6286 80.8361 16.9583 80.687 17.3693C80.5411 17.777 80.4682 18.2244 80.4682 18.7116C80.4682 19.2022 80.5411 19.6513 80.687 20.0589C80.8361 20.4666 81.0632 20.7931 81.3681 21.0384C81.6763 21.2836 82.0641 21.4062 82.5314 21.4062Z" fill="url(#paint0_linear_419_1675)"/>
<path d="M5 1.5H102V-0.5H5V1.5ZM106 5.5V28.5H108V5.5H106ZM102 32.5H5V34.5H102V32.5ZM1 28.5V5.5H-1V28.5H1ZM5 32.5C2.79086 32.5 1 30.7091 1 28.5H-1C-1 31.8137 1.68629 34.5 5 34.5V32.5ZM106 28.5C106 30.7091 104.209 32.5 102 32.5V34.5C105.314 34.5 108 31.8137 108 28.5H106ZM102 1.5C104.209 1.5 106 3.29086 106 5.5H108C108 2.18629 105.314 -0.5 102 -0.5V1.5ZM5 -0.5C1.68629 -0.5 -1 2.18629 -1 5.5H1C1 3.29086 2.79086 1.5 5 1.5V-0.5Z" fill="url(#paint1_linear_419_1675)"/>
<defs>
<linearGradient id="paint0_linear_419_1675" x1="20" y1="18.7708" x2="86.9895" y2="19.8056" gradientUnits="userSpaceOnUse">
<stop stop-color="#2EDDC1"/>
<stop offset="1" stop-color="#45DEFC"/>
</linearGradient>
<linearGradient id="paint1_linear_419_1675" x1="4.01374e-07" y1="20.4375" x2="106.991" y2="21.7972" gradientUnits="userSpaceOnUse">
<stop stop-color="#2EDDC1"/>
<stop offset="1" stop-color="#45DEFC"/>
</linearGradient>
</defs>
</svg>
