<?xml version="1.0" encoding="UTF-8"?> <svg xmlns="http://www.w3.org/2000/svg" id="圖層_1" viewBox="0 0 1308 344.7"><style>.st0{fill:#fff}</style><title>Gofreight_icon-text_white_horizontal</title><path class="st0" d="M40.2 109.4l109-63L172 59.5l41.5-22.4L149.2 0 0 86.2v66.4l40.2-21.7zm0 58L0 189.1v42.3l40.2-21.7zm202.3-67.1L284 77.8 246.2 56l-41.5 22.4zM50 240.9L8.5 263.4 47 285.6l41.5-22.5zm208.3-33v27.4l-109.1 62.9-28-16.2-41.5 22.5 69.5 40.2 149.3-86.2v-72.4zm-41.3 3.5l-67.8 39.1-67.7-39.1v-78.2l67.7-39.1 67.8 39.1zm217.7-25.5l66.8-28.5v39.5c-.3 19.4-6.8 35.7-19.3 48.8-12.5 13.1-28.4 19.8-47.7 20.1-14.8-.4-27.1-4.1-37-11.2-10-6.8-17.3-14.7-21.9-23.7-1.4-2.9-2.6-5.7-3.7-8.4-1.2-3.4-2.1-6.8-2.6-10.4-1.3-7.8-1.9-22.8-1.9-45 0-22.5.6-37.6 1.9-45.2 1.3-7.6 3.4-13.8 6.3-18.5 4.6-9 11.9-17 21.9-24 9.9-7.1 22.2-10.7 37-10.9 18.1.2 32.9 5.7 44.3 16.6 11.4 10.9 18.6 24.5 21.6 40.9l-28.5 11.4c-1-14.3-8.2-25.9-14.3-31.4-6.4-5.2-14.1-8-23.2-8.2-6 0-11.9 1.4-17.3 4.1-4.6 2.4-8.7 5.8-11.9 10-3.9 4.6-6.4 10.2-7.4 16.1-1.4 6.9-2.1 20-2.1 39.1s.7 32 2.1 38.8c1.2 6.8 3.7 12.2 7.4 16.4 3.2 4.1 7.2 7.5 11.9 9.7 4.8 2.9 10.6 4.4 17.3 4.4 18.2 0 38.3-10.3 38.6-30.6v-7.5l-38.3 15.2v-27.6zm82.2 14.3c0-13.8 1.1-24.4 3.3-31.8 2-6.8 5.6-13.1 10.5-18.3 4.1-4.8 9-8.8 14.7-11.7 6.2-3.3 14.1-5 23.8-5.1 10 .2 18.1 1.9 24.3 5.2 5.5 2.9 10.3 6.9 14.2 11.7 5.1 5.1 8.8 11.3 10.7 18.3 2 7.4 3 18 3 31.8s-1 24.3-3 31.5c-2 7-5.7 13.5-10.7 18.8-1.8 2.1-3.8 4-6 5.7-2.4 2.3-5.1 4.1-8.2 5.4-6.2 3.6-14.3 5.5-24.3 5.7-9.7-.2-17.6-2.1-23.8-5.7-6.3-3.3-11.2-7-14.6-11.1-4.8-5.4-8.4-11.8-10.5-18.8-2.3-7.4-3.4-17.9-3.4-31.6zm79 .2c0-9.3-.4-16.2-1.2-20.5-.7-4-2.5-7.7-5-10.9-2-3.1-4.9-5.5-8.3-7-3.8-1.8-8-2.7-12.2-2.6-4.1 0-8.3.9-12 2.6-3.4 1.6-6.3 4-8.6 7-2.3 3.3-3.9 7-4.8 10.9-1 4.3-1.5 11-1.5 20.2s.5 15.9 1.5 20c.9 4.1 2.5 7.9 4.8 11.4 2.4 2.7 5.3 5 8.6 6.7 3.7 1.9 7.8 2.8 12 2.8 4.2.1 8.4-.9 12.2-2.8 3.2-1.6 6.1-3.9 8.3-6.7 2.5-3.3 4.3-7.2 5-11.4.8-4.2 1.2-10.8 1.2-19.7zM649 82h113.7l-15.6 26.2h-71.2v54.3h61l-15.6 24.7h-45.4v78.5H649V82zm118.8 52.9h25.4v13.9h.5c8.4-10.3 19.4-15.5 33-15.5 9.8 0 19.2 3.6 26.6 10L834.8 166c-5.4-4.4-11-6.6-16.7-6.6-6.2-.1-12.3 2.2-16.7 6.6-5.2 4.3-7.9 11.2-8.1 20.8v78.9h-25.4V134.9zm102 75.3c0 10.5 2.9 18.5 8.8 24 5.5 5.6 12.6 8.3 21.5 8.3 10.3 0 19.6-4.2 27.7-12.7l18.4 16.2c-12.9 14.3-28.1 21.3-45.6 21.2-6.6 0-13.2-1-19.5-3-3.2-1.1-6.4-2.6-9.3-4.4-3.2-1.6-6.2-3.6-8.9-5.9-5.3-4.9-9.7-11.7-13-20.4-3.7-8.4-5.5-19.3-5.5-32.8 0-12.9 1.6-23.7 4.8-32.3 3.2-8.7 7.2-15.6 12.2-20.7 4.8-4.9 10.6-8.7 17-11.1 5.9-2.2 12.1-3.4 18.3-3.4 14.5.2 26.7 5.1 36.7 14.8 10.2 9.8 15.3 23.4 15.5 40.6v21.6h-79.1zm53.6-21.6c-.3-10.2-3-17.9-8-23.2-4.9-5-11.2-7.5-18.8-7.5-7.7 0-13.9 2.5-18.8 7.5-4.8 5.2-7.5 12.9-8 23.2h53.6zM967.5 82h25.4v26.2h-25.4zm0 52.9h25.4v130.8h-25.4zM1086.9 252c-8.4 9.8-19.3 14.8-32.7 15.2-8.2-.2-15-2-20.5-5.4-5-2.7-9.4-6.3-13-10.6-3.5-4.7-6-10-7.2-15.8-1.5-6.1-2.3-17.8-2.3-35 0-17.6.8-29.5 2.3-35.7 1.2-5.6 3.7-10.9 7.2-15.5 3.5-4.5 7.9-8.3 13-11 5.4-3.1 12.3-4.7 20.5-4.9 12.6 0 23.5 5.2 32.7 15.5v-13.9h25.4v127.6c-.3 19.7-5.8 34.1-16.4 43.4-10.7 9.5-23.6 14.2-38.5 14.2-17.2-.3-31.8-7.6-43.9-21.9l19.8-16.2c3.3 3.2 7.1 5.9 11.2 8 4.1 2.4 8.7 3.7 13.4 3.9 8.7 0 15.7-2.5 21-7.5 5.3-5 8-12 8-21V252zm-50.3-51.6c0 10 .3 16.9 1 20.7.4 3.6 1.8 7 4 9.9 2.1 2.7 4.8 4.9 7.8 6.4 7.6 4.7 17.3 4.7 24.9 0 2.9-1.6 5.5-3.8 7.6-6.4 2.2-2.9 3.7-6.3 4.3-9.9.5-3.8.7-10.7.7-20.7 0-10.2-.2-17.3-.7-21.2-.5-3.5-2-6.8-4.3-9.6-2.1-2.7-4.7-5.1-7.6-6.9-7.8-4.2-17.1-4.2-24.9 0-3 1.8-5.7 4.2-7.8 6.9-2.2 2.8-3.6 6.1-4 9.6-.6 3.9-1 11-1 21.2zM1136.8 82h25.4v66.8h.5c8.4-10.3 19.3-15.5 32.9-15.5 10.5 0 20.1 3.8 28.8 11.5s13.2 19 13.5 34v86.9h-25.4v-78c0-9.2-2.4-16.2-7.1-20.9s-10.7-7.2-18-7.3c-7.3 0-13.4 2.4-18.1 7.3-4.7 4.9-7.1 11.9-7.2 20.9v78h-25.4l.1-183.7zM1264 95.1h25.4v39.8h18.6V155h-18.6v76.2c-.2 6.7 2.8 9.9 9 9.7h9.6v24.7h-13.3c-8.9 0-16.3-2.9-21.9-8.6-5.8-5.5-8.8-13.3-8.8-23.7V155h-12.8v-20.1h12.8V95.1z"></path></svg> 