<svg width="1308" height="344.7" xmlns="http://www.w3.org/2000/svg">
 <title>header_logo</title>

 <g>
  <title>Layer 1</title>
  <text transform="matrix(0.881003 0 0 0.861323 60.1683 17.2829)" stroke="#ffffff" xml:space="preserve" text-anchor="start" font-family="'Open Sans'" font-size="250" id="svg_2" y="262.04804" x="433.87021" stroke-width="6" fill="#ffffff">O O X X</text>
  <path id="svg_3" d="m172.32807,230.83511c-36.35754,0 -65.84524,-29.71522 -65.84524,-66.35331l0,0c0.02195,-29.40557 19.02927,-54.17748 45.29055,-62.8587l0,0c0.91086,-24.99308 21.25704,-44.94331 46.26725,-44.96543l0,0c8.01117,0 15.5285,2.10119 22.05815,5.71744l0,0c13.89334,-23.27895 39.17792,-38.88304 68.12787,-38.8941l0,0c43.31519,0.02212 78.54239,34.89078 79.54105,78.28585l0,0c25.92107,8.89134 44.57722,33.55266 44.59917,62.71494l0,0c0,36.63809 -29.48769,66.35331 -65.84524,66.35331l0,0l-174.19357,0l0,0zm182.18279,-109.75943c-5.60782,-1.05059 -9.48171,-6.21509 -8.94398,-11.93254l0,0c0.18656,-1.89107 0.2963,-3.71579 0.2963,-5.49627l0,0c-0.07682,-32.05971 -25.81133,-58.00385 -57.62556,-58.04809l0,0c-24.68099,-0.02212 -45.67465,15.6815 -53.89433,37.7108l0,0c-1.33885,3.57202 -4.45553,6.23721 -8.20871,6.9671l0,0c-3.73123,0.72989 -7.6161,-0.57506 -10.17309,-3.4172l0,0c-4.56527,-5.00967 -10.82057,-8.08404 -17.92088,-8.08404l0,0c-13.4434,0.02212 -24.31884,10.98147 -24.36274,24.52861l0,0c0,1.50401 0.18656,3.05225 0.49384,4.68897l0,0c0.53774,2.94166 -0.08779,5.9718 -1.7888,8.42687l0,0c-1.701,2.46613 -4.30189,4.10285 -7.21005,4.57838l0,0c-20.85099,3.46143 -36.78554,21.55377 -36.76359,43.47248l0,0c0.0439,24.42908 19.66578,44.18024 43.9078,44.2466l0,0l174.20455,0c24.24202,-0.06635 43.83098,-19.81752 43.88585,-44.2466l0,0c0.0439,-21.64224 -15.47363,-39.59081 -35.89663,-43.39506l0,0" stroke-width="0" stroke="#ffffff" fill="#ffffff"/>
  <path stroke="#b2b2b2" id="svg_5" d="m262.20135,184.53536c0.22677,-2.29413 0.35806,-4.61179 0.35806,-6.95298c0,-40.61199 -33.3949,-73.52981 -74.59547,-73.52981c-31.9746,0 -59.1751,19.8707 -69.78556,47.7532c-7.02988,-7.60004 -17.05551,-12.45889 -28.31047,-12.45889c-21.22092,0 -38.41965,16.95303 -38.41965,37.8708c0,2.4706 0.27451,4.88238 0.73999,7.2118c-28.31047,4.60003 -49.973,28.65898 -49.973,57.85914c0,32.4943 26.72308,58.82385 59.67638,58.82385l189.4725,0c32.96523,0 59.67638,-26.32956 59.67638,-58.82385c0.01194,-28.83545 -21.06576,-52.71794 -48.83915,-57.75326z" stroke-width="0" fill="#ffffff"/>
 </g>
</svg>