<svg width="25" height="25" viewBox="0 0 25 25" fill="none" xmlns="http://www.w3.org/2000/svg">
<path fill-rule="evenodd" clip-rule="evenodd" d="M12.5 25C19.4036 25 25 19.4036 25 12.5C25 5.59644 19.4036 0 12.5 0C5.59644 0 0 5.59644 0 12.5C0 19.4036 5.59644 25 12.5 25ZM15.9044 10.9595L15.5413 13.3121L13.6346 13.3125V19H11.0778V13.3125H8.99997V10.9599H11.0778V9.16675C11.0778 7.12697 12.2994 6.00003 14.1685 6.00003C15.0638 6.00003 16 6.15887 16 6.15887V8.16168H14.9682C13.9516 8.16168 13.6346 8.78934 13.6346 9.43284V10.9595H15.9044Z" fill="#DEE2E6"/>
</svg>
