<svg width="35" height="35" viewBox="0 0 35 35" fill="none" xmlns="http://www.w3.org/2000/svg">
<path d="M28.3894 0H6.77724C4.69448 0 3 1.51047 3 3.36704V31.633C3 33.4895 4.69448 35 6.77724 35H28.3894C30.4722 35 32.1667 33.4895 32.1667 31.633V3.36704C32.1667 1.51047 30.4722 0 28.3894 0ZM8.17709 5.81711C8.17709 5.25082 8.69212 4.79172 9.3274 4.79172H25.8392C26.4745 4.79172 26.9895 5.25082 26.9895 5.81711V7.84178C26.9895 8.40807 26.4745 8.86717 25.8392 8.86717H9.3274C8.69212 8.86717 8.17709 8.40807 8.17709 7.84178V5.81711ZM12.0499 28.8419C12.0499 29.4082 11.5348 29.8673 10.8996 29.8673H9.32748C8.6922 29.8673 8.17717 29.4082 8.17717 28.8419V27.8704C8.17717 27.3041 8.6922 26.845 9.32748 26.845H10.8996C11.5348 26.845 12.0499 27.3041 12.0499 27.8704V28.8419ZM12.0499 22.7737C12.0499 23.3399 11.5348 23.799 10.8996 23.799H9.32748C8.6922 23.799 8.17717 23.3399 8.17717 22.7737V21.8021C8.17717 21.2358 8.6922 20.7767 9.32748 20.7767H10.8996C11.5348 20.7767 12.0499 21.2358 12.0499 21.8021V22.7737ZM19.6139 28.8419C19.6139 29.4082 19.0989 29.8673 18.4636 29.8673H16.8915C16.2562 29.8673 15.7412 29.4082 15.7412 28.8419V27.8704C15.7412 27.3041 16.2562 26.845 16.8915 26.845H18.4636C19.0989 26.845 19.6139 27.3041 19.6139 27.8704V28.8419ZM19.6139 22.7737C19.6139 23.3399 19.0989 23.799 18.4636 23.799H16.8915C16.2562 23.799 15.7412 23.3399 15.7412 22.7737V21.8021C15.7412 21.2358 16.2562 20.7767 16.8915 20.7767H18.4636C19.0989 20.7767 19.6139 21.2358 19.6139 21.8021V22.7737ZM19.6139 16.7053C19.6139 17.2717 19.0989 17.7307 18.4636 17.7307H9.3274C8.69212 17.7307 8.17709 17.2716 8.17709 16.7053V15.7338C8.17709 15.1675 8.69212 14.7084 9.3274 14.7084H18.4636C19.0989 14.7084 19.6139 15.1675 19.6139 15.7338V16.7053ZM27.178 28.8419C27.178 29.4082 26.663 29.8673 26.0277 29.8673H24.4556C23.8203 29.8673 23.3053 29.4082 23.3053 28.8419V27.8704C23.3053 27.3041 23.8203 26.845 24.4556 26.845H26.0277C26.663 26.845 27.178 27.3041 27.178 27.8704V28.8419ZM27.178 22.7737C27.178 23.3399 26.663 23.799 26.0277 23.799H24.4556C23.8203 23.799 23.3053 23.3399 23.3053 22.7737V21.8021C23.3053 21.2358 23.8203 20.7767 24.4556 20.7767H26.0277C26.663 20.7767 27.178 21.2358 27.178 21.8021V22.7737ZM27.178 16.7053C27.178 17.2717 26.663 17.7307 26.0277 17.7307H24.4556C23.8203 17.7307 23.3053 17.2716 23.3053 16.7053V15.7338C23.3053 15.1675 23.8203 14.7084 24.4556 14.7084H26.0277C26.663 14.7084 27.178 15.1675 27.178 15.7338V16.7053Z" fill="#171818"/>
</svg>
