<svg width="30" height="30" viewBox="0 0 30 30" fill="none" xmlns="http://www.w3.org/2000/svg">
<path d="M15 3.75C20.525 3.75 25 5.9875 25 8.75C25 11.5125 20.525 13.75 15 13.75C9.475 13.75 5 11.5125 5 8.75C5 5.9875 9.475 3.75 15 3.75ZM5 11.25C5 14.0125 9.475 16.25 15 16.25C20.525 16.25 25 14.0125 25 11.25V15.1L23.75 15C20.5125 15 17.75 17.05 16.7 19.925L15 20C9.475 20 5 17.7625 5 15V11.25ZM5 17.5C5 20.2625 9.475 22.5 15 22.5H16.25C16.25 23.8125 16.5875 25.05 17.1875 26.125L15 26.25C9.475 26.25 5 24.0125 5 21.25V17.5ZM22.5 26.35L19.0625 22.6L20.5125 21.15L22.5 23.125L26.9875 18.65L28.4375 20.4125L22.5 26.35Z" fill="black"/>
</svg>
