<svg width="60" height="60" viewBox="0 0 60 60" fill="none" xmlns="http://www.w3.org/2000/svg">
<path d="M29.109 8.99153L29.1077 8.99044C28.8478 8.7664 28.5154 8.64062 28.166 8.64062H22.9805C22.0846 8.64062 21.6694 9.75483 22.349 10.3393C22.3494 10.3398 22.3499 10.3402 22.3504 10.3406L41.8566 27.2734H8.90625C8.3723 27.2734 7.9375 27.7082 7.9375 28.2422V31.7578C7.9375 32.2918 8.3723 32.7266 8.90625 32.7266H41.8507L22.3421 49.6615L22.3407 49.6628C21.6694 50.2501 22.0736 51.3594 22.9746 51.3594H28.3359C28.5625 51.3594 28.7943 51.2781 28.9734 51.1154L51.2456 31.7957L51.2461 31.7953C51.5029 31.5719 51.7088 31.2961 51.8499 30.9864C51.991 30.6767 52.064 30.3403 52.064 30C52.064 29.6597 51.991 29.3233 51.8499 29.0136C51.7088 28.7039 51.5029 28.4281 51.2461 28.2047L50.918 28.582L51.2457 28.2044L29.109 8.99153Z" fill="white" stroke="white"/>
</svg>
