<svg width="35" height="35" viewBox="0 0 35 35" fill="none" xmlns="http://www.w3.org/2000/svg">
<path d="M22.75 10.5C22.75 11.8924 22.1969 13.2277 21.2123 14.2123C20.2277 15.1969 18.8924 15.75 17.5 15.75C16.1076 15.75 14.7723 15.1969 13.7877 14.2123C12.8031 13.2277 12.25 11.8924 12.25 10.5C12.25 9.10761 12.8031 7.77226 13.7877 6.78769C14.7723 5.80312 16.1076 5.25 17.5 5.25C18.8924 5.25 20.2277 5.80312 21.2123 6.78769C22.1969 7.77226 22.75 9.10761 22.75 10.5V10.5Z" fill="#171818"/>
<path d="M31.5 14C31.5 14.9283 31.1313 15.8185 30.4749 16.4749C29.8185 17.1313 28.9283 17.5 28 17.5C27.0717 17.5 26.1815 17.1313 25.5251 16.4749C24.8687 15.8185 24.5 14.9283 24.5 14C24.5 13.0717 24.8687 12.1815 25.5251 11.5251C26.1815 10.8687 27.0717 10.5 28 10.5C28.9283 10.5 29.8185 10.8687 30.4749 11.5251C31.1313 12.1815 31.5 13.0717 31.5 14V14Z" fill="#171818"/>
<path d="M24.5 26.25C24.5 24.3935 23.7625 22.613 22.4497 21.3003C21.137 19.9875 19.3565 19.25 17.5 19.25C15.6435 19.25 13.863 19.9875 12.5503 21.3003C11.2375 22.613 10.5 24.3935 10.5 26.25V31.5H24.5V26.25Z" fill="#171818"/>
<path d="M10.5 14C10.5 14.9283 10.1313 15.8185 9.47487 16.4749C8.8185 17.1313 7.92826 17.5 7 17.5C6.07174 17.5 5.1815 17.1313 4.52513 16.4749C3.86875 15.8185 3.5 14.9283 3.5 14C3.5 13.0717 3.86875 12.1815 4.52513 11.5251C5.1815 10.8687 6.07174 10.5 7 10.5C7.92826 10.5 8.8185 10.8687 9.47487 11.5251C10.1313 12.1815 10.5 13.0717 10.5 14V14Z" fill="#171818"/>
<path d="M28 31.5V26.25C28.0025 24.4708 27.5508 22.7203 26.6875 21.1645C27.4634 20.966 28.2743 20.9473 29.0585 21.1098C29.8427 21.2723 30.5794 21.6118 31.2124 22.1024C31.8455 22.5929 32.3581 23.2216 32.7112 23.9404C33.0643 24.6592 33.2486 25.4492 33.25 26.25V31.5H28Z" fill="#171818"/>
<path d="M8.3125 21.1645C7.44931 22.7204 6.99755 24.4708 7 26.25V31.5H1.75V26.25C1.74966 25.4486 1.93281 24.6577 2.28541 23.938C2.638 23.2183 3.15069 22.5889 3.78417 22.098C4.41765 21.6071 5.15512 21.2678 5.94004 21.1059C6.72497 20.9441 7.53652 20.9642 8.3125 21.1645V21.1645Z" fill="#171818"/>
</svg>
