<svg width="35" height="35" viewBox="0 0 35 35" fill="none" xmlns="http://www.w3.org/2000/svg">
<path d="M33.934 24.1538L20.415 10.6362V4.64148C20.415 3.69513 20.205 2.74146 19.7908 1.8519L19.4832 1.26864C19.1201 0.485584 18.3603 0 17.4985 0C16.6367 0 15.877 0.485584 15.5299 1.23508L15.1902 1.88396C14.7921 2.74139 14.5821 3.69363 14.5821 4.64142V10.6361L1.06741 24.1509C0.379158 24.8392 0 25.7535 0 26.7276V28.4366C0 28.7035 0.145798 28.9484 0.379158 29.0753C0.612449 29.2036 0.898303 29.1949 1.12285 29.0491L14.865 20.2429C15.0006 22.4492 15.1843 24.2909 15.4089 26.5322L15.6407 28.8289L10.5356 32.2017C10.3299 32.3388 10.2075 32.5663 10.2075 32.8112V34.2694C10.2075 34.4896 10.3081 34.6996 10.4801 34.8381C10.6537 34.9781 10.8796 35.0306 11.094 34.9825L17.4985 33.5578L23.9029 34.9825C23.9554 34.9942 24.0079 35 24.0604 35C24.2252 35 24.3856 34.9446 24.5168 34.8396C24.6889 34.6996 24.7895 34.4896 24.7895 34.2694V32.8112C24.7895 32.5663 24.667 32.3374 24.4614 32.2032L19.3562 28.8347L19.588 26.5307C19.8126 24.2923 19.9963 22.4521 20.1319 20.2458L33.8741 29.049C34.1001 29.1948 34.3845 29.2021 34.6163 29.0752C34.8511 28.9484 34.9969 28.7034 34.9969 28.4365V26.7275C34.9971 25.7535 34.6194 24.8392 33.934 24.1538Z" fill="#171818"/>
</svg>
