<svg width="16" height="11" viewBox="0 0 16 11" fill="none" xmlns="http://www.w3.org/2000/svg">
<path d="M7.50772 1.04507L0.630768 9.84973C0.612655 9.87274 0.601398 9.90039 0.598291 9.9295C0.595184 9.95862 0.600352 9.98802 0.613202 10.0143C0.626051 10.0406 0.646062 10.0628 0.670934 10.0782C0.695807 10.0937 0.724534 10.1018 0.753815 10.1017L2.26358 10.1017C2.35928 10.1017 2.45108 10.0568 2.50967 9.98254L7.99991 2.95132L13.4901 9.98254C13.5487 10.0587 13.6405 10.1017 13.7362 10.1017L15.246 10.1017C15.3769 10.1017 15.4491 9.95129 15.3691 9.84973L8.4921 1.04507C8.43372 0.970237 8.35905 0.9097 8.27377 0.868062C8.18848 0.826424 8.09482 0.804781 7.99991 0.804781C7.905 0.804781 7.81134 0.826424 7.72605 0.868062C7.64077 0.9097 7.5661 0.970237 7.50772 1.04507Z" fill="#171818"/>
</svg>
