<svg width="35" height="35" viewBox="0 0 35 35" fill="none" xmlns="http://www.w3.org/2000/svg">
<path d="M17.4851 16.633C17.7723 16.4903 18.1096 16.4901 18.3969 16.6325L31.0672 22.9107V14.9532C31.0672 14.3869 30.6081 13.9278 30.0419 13.9278H5.84131C5.27502 13.9278 4.81592 14.3869 4.81592 14.9532V22.9311L17.4851 16.633Z" fill="#171818"/>
<path d="M18.967 19.2036V35H29.7642C30.1083 35 30.4294 34.8274 30.6193 34.5405L34.713 28.3554C34.8739 28.1123 34.9237 27.8123 34.85 27.5303C34.7764 27.2483 34.5862 27.011 34.327 26.8777L18.967 19.2036Z" fill="#171818"/>
<path d="M16.9162 19.2059L1.55633 26.8775C1.29711 27.0108 1.10693 27.2481 1.03331 27.5301C0.95962 27.8121 1.00945 28.1121 1.1703 28.3552L5.264 34.5403C5.4539 34.8272 5.77505 34.9998 6.1191 34.9998H16.9162V19.2059Z" fill="#171818"/>
<path d="M21.5014 3.43437V1.02539C21.5014 0.459101 21.0423 0 20.476 0H15.407C14.8407 0 14.3816 0.459101 14.3816 1.02539V3.43437H21.5014Z" fill="#171818"/>
<path d="M27.9999 11.8769V9.32824C27.9999 8.76195 27.5408 8.30285 26.9745 8.30285H21.5014V5.48508H14.3816V8.30292H8.90845C8.34216 8.30292 7.88306 8.76202 7.88306 9.3283V11.8769H27.9999Z" fill="#171818"/>
</svg>
