<svg width="30" height="30" viewBox="0 0 30 30" fill="none" xmlns="http://www.w3.org/2000/svg">
<path d="M15 3.75C12.5255 3.75776 10.1353 4.65025 8.26125 6.26625C6.825 7.50375 5.78437 9.11625 5.51625 10.7344C2.37375 11.4281 0 14.1656 0 17.4712C0 21.3112 3.2025 24.375 7.08937 24.375H23.7881C27.1913 24.375 30 21.6937 30 18.3244C30 15.2569 27.6713 12.7575 24.6863 12.3356C24.2306 7.49813 20.0438 3.75 15 3.75ZM19.4138 13.3987C19.5009 13.4859 19.5701 13.5894 19.6172 13.7033C19.6644 13.8172 19.6887 13.9392 19.6887 14.0625C19.6887 14.1858 19.6644 14.3078 19.6172 14.4217C19.5701 14.5356 19.5009 14.6391 19.4138 14.7263C19.3266 14.8134 19.2231 14.8826 19.1092 14.9297C18.9953 14.9769 18.8733 15.0012 18.75 15.0012C18.6267 15.0012 18.5047 14.9769 18.3908 14.9297C18.2769 14.8826 18.1734 14.8134 18.0862 14.7263L15.9375 12.5756V19.6875C15.9375 19.9361 15.8387 20.1746 15.6629 20.3504C15.4871 20.5262 15.2486 20.625 15 20.625C14.7514 20.625 14.5129 20.5262 14.3371 20.3504C14.1613 20.1746 14.0625 19.9361 14.0625 19.6875V12.5756L11.9138 14.7263C11.7377 14.9023 11.499 15.0012 11.25 15.0012C11.001 15.0012 10.7623 14.9023 10.5862 14.7263C10.4102 14.5502 10.3113 14.3115 10.3113 14.0625C10.3113 13.8135 10.4102 13.5748 10.5862 13.3987L14.3362 9.64875C14.4233 9.56144 14.5268 9.49218 14.6407 9.44491C14.7546 9.39765 14.8767 9.37332 15 9.37332C15.1233 9.37332 15.2454 9.39765 15.3593 9.44491C15.4732 9.49218 15.5767 9.56144 15.6638 9.64875L19.4138 13.3987Z" fill="black"/>
</svg>
