<svg width="25" height="25" viewBox="0 0 25 25" fill="none" xmlns="http://www.w3.org/2000/svg">
<path fill-rule="evenodd" clip-rule="evenodd" d="M12.5 25C19.4036 25 25 19.4036 25 12.5C25 5.59644 19.4036 0 12.5 0C5.59644 0 0 5.59644 0 12.5C0 19.4036 5.59644 25 12.5 25ZM19.211 7.81336C19.4427 8.04558 19.6095 8.33442 19.6949 8.65114C20.0149 9.82481 19.9999 12.2718 19.9999 12.2718C19.9999 12.2718 19.9976 14.7054 19.6874 15.8783C19.6007 16.1947 19.433 16.4831 19.2007 16.7148C18.9684 16.9466 18.6797 17.1137 18.363 17.1996C17.1894 17.5069 12.4939 17.5016 12.4939 17.5016C12.4939 17.5016 7.81126 17.4964 6.6256 17.1741C5.98256 17.001 5.47666 16.4936 5.30429 15.8513C4.997 14.6896 5 12.2434 5 12.2434C5 12.2434 5.003 9.80907 5.31253 8.6354C5.40043 8.31847 5.56833 8.02945 5.80011 7.7961C6.03189 7.56275 6.31976 7.39289 6.63609 7.30285C7.81051 6.99482 12.5052 7.00006 12.5052 7.00006C12.5052 7.00006 17.2006 7.00531 18.3743 7.32758C18.6908 7.41366 18.9793 7.58115 19.211 7.81336ZM11.007 10.0017L11.0033 14.4985L14.9095 12.2538L11.007 10.0017Z" fill="#DEE2E6"/>
</svg>
