<svg width="16" height="11" viewBox="0 0 16 11" fill="none" xmlns="http://www.w3.org/2000/svg">
<path d="M7.50772 9.95493L0.630768 1.15027C0.612655 1.12726 0.601398 1.09961 0.598291 1.0705C0.595184 1.04138 0.600352 1.01198 0.613202 0.985668C0.626051 0.959357 0.646062 0.937204 0.670934 0.921752C0.695807 0.906301 0.724534 0.898178 0.753815 0.898317H2.26358C2.35928 0.898317 2.45108 0.943239 2.50967 1.01746L7.99991 8.04868L13.4901 1.01746C13.5487 0.941286 13.6405 0.898317 13.7362 0.898317H15.246C15.3769 0.898317 15.4491 1.04871 15.3691 1.15027L8.4921 9.95493C8.43372 10.0298 8.35905 10.0903 8.27377 10.1319C8.18848 10.1736 8.09482 10.1952 7.99991 10.1952C7.905 10.1952 7.81134 10.1736 7.72605 10.1319C7.64077 10.0903 7.5661 10.0298 7.50772 9.95493Z" fill="#ADB5BD"/>
</svg>
